                <svg xmlns="http://www.w3.org/2000/svg" viewBox="0 0 436 436"><path d="M416.692 380.573H19.308C8.645 380.573 0 371.929 0 361.265V209.881c0-10.664 8.645-19.308 19.308-19.308h397.384c10.664 0 19.308 8.645 19.308 19.308v151.384c0 10.664-8.645 19.308-19.308 19.308z" fill="#ccc"/><g fill="#4d4d4d"><path d="M400.552 267.74h-21.548a4.447 4.447 0 00-4.448 4.448v26.77a4.447 4.447 0 004.448 4.448h21.548a4.448 4.448 0 004.448-4.448v-26.77a4.448 4.448 0 00-4.448-4.448zM405 256.292v-30.27a4.448 4.448 0 00-4.448-4.448h-21.548a4.448 4.448 0 00-4.448 4.448v30.27a4.447 4.447 0 004.448 4.448h21.548a4.447 4.447 0 004.448-4.448zM342.506 303.407h20.602a4.448 4.448 0 004.448-4.448v-26.77a4.448 4.448 0 00-4.448-4.448h-20.602a4.447 4.447 0 00-4.448 4.448v26.77a4.448 4.448 0 004.448 4.448zM342.506 349.573h20.602a4.448 4.448 0 004.448-4.448v-30.27a4.448 4.448 0 00-4.448-4.448h-20.602a4.447 4.447 0 00-4.448 4.448v30.27a4.447 4.447 0 004.448 4.448zM342.506 260.74h20.602a4.448 4.448 0 004.448-4.448v-30.27a4.448 4.448 0 00-4.448-4.448h-20.602a4.448 4.448 0 00-4.448 4.448v30.27a4.447 4.447 0 004.448 4.448zM374.556 314.855v30.27a4.447 4.447 0 004.448 4.448h21.548a4.448 4.448 0 004.448-4.448v-30.27a4.448 4.448 0 00-4.448-4.448h-21.548a4.447 4.447 0 00-4.448 4.448z"/></g><g fill="#4d4d4d"><path d="M118.568 345.3v-30.62a4.273 4.273 0 00-4.273-4.273H83.344a4.273 4.273 0 00-4.273 4.273v30.62a4.273 4.273 0 004.273 4.273h30.951a4.273 4.273 0 004.273-4.273zM139.794 267.74h-30.951a4.273 4.273 0 00-4.273 4.273v27.12a4.273 4.273 0 004.273 4.273h30.951a4.273 4.273 0 004.273-4.273v-27.12a4.272 4.272 0 00-4.273-4.273zM207.29 310.407h-77.448a4.273 4.273 0 00-4.273 4.273v30.62a4.273 4.273 0 004.273 4.273h77.448a4.273 4.273 0 004.273-4.273v-30.62a4.272 4.272 0 00-4.273-4.273zM61.071 272.014v27.12a4.273 4.273 0 004.273 4.273h27.951a4.273 4.273 0 004.273-4.273v-27.12a4.273 4.273 0 00-4.273-4.273h-27.95a4.272 4.272 0 00-4.274 4.273zM151.068 272.014v27.12a4.273 4.273 0 004.273 4.273h30.95a4.273 4.273 0 004.273-4.273v-27.12a4.273 4.273 0 00-4.273-4.273h-30.95a4.272 4.272 0 00-4.273 4.273zM302.495 256.467v-30.62a4.273 4.273 0 00-4.273-4.273h-28.886a4.273 4.273 0 00-4.273 4.273v30.62a4.273 4.273 0 004.273 4.273h28.886a4.273 4.273 0 004.273-4.273zM222.837 349.573h30.951a4.273 4.273 0 004.273-4.273v-30.62a4.273 4.273 0 00-4.273-4.273h-30.951a4.273 4.273 0 00-4.273 4.273v30.62a4.273 4.273 0 004.273 4.273zM118.568 256.467v-30.62a4.273 4.273 0 00-4.273-4.273H83.344a4.273 4.273 0 00-4.273 4.273v30.62a4.273 4.273 0 004.273 4.273h30.951a4.273 4.273 0 004.273-4.273zM35.274 303.407h14.524a4.273 4.273 0 004.273-4.273v-27.12a4.273 4.273 0 00-4.273-4.273H35.274a4.273 4.273 0 00-4.273 4.273v27.12a4.272 4.272 0 004.273 4.273zM35.274 349.573h32.523a4.273 4.273 0 004.273-4.273v-30.62a4.273 4.273 0 00-4.273-4.273H35.274a4.273 4.273 0 00-4.273 4.273v30.62a4.272 4.272 0 004.273 4.273zM35.274 260.74h32.523a4.273 4.273 0 004.273-4.273v-30.62a4.273 4.273 0 00-4.273-4.273H35.274a4.273 4.273 0 00-4.273 4.273v30.62a4.272 4.272 0 004.273 4.273zM165.067 256.467v-30.62a4.273 4.273 0 00-4.273-4.273h-30.951a4.273 4.273 0 00-4.273 4.273v30.62a4.273 4.273 0 004.273 4.273h30.951a4.274 4.274 0 004.273-4.273zM265.062 314.68v30.62a4.273 4.273 0 004.273 4.273h28.886a4.273 4.273 0 004.273-4.273v-30.62a4.273 4.273 0 00-4.273-4.273h-28.886a4.273 4.273 0 00-4.273 4.273zM232.789 267.74h-30.951a4.273 4.273 0 00-4.273 4.273v27.12a4.273 4.273 0 004.273 4.273h30.951a4.273 4.273 0 004.273-4.273v-27.12a4.272 4.272 0 00-4.273-4.273zM211.564 256.467v-30.62a4.273 4.273 0 00-4.273-4.273h-30.95a4.273 4.273 0 00-4.273 4.273v30.62a4.273 4.273 0 004.273 4.273h30.95a4.274 4.274 0 004.273-4.273zM298.222 267.74h-49.885a4.273 4.273 0 00-4.273 4.273v27.12a4.273 4.273 0 004.273 4.273h49.885a4.273 4.273 0 004.273-4.273v-27.12a4.273 4.273 0 00-4.273-4.273zM258.062 256.467v-30.62a4.273 4.273 0 00-4.273-4.273h-30.951a4.273 4.273 0 00-4.273 4.273v30.62a4.273 4.273 0 004.273 4.273h30.951a4.274 4.274 0 004.273-4.273z"/></g><path d="M66.071 190.573h-20v-24.152c0-17.92 14.579-32.499 32.499-32.499h271.486c6.892 0 12.499-5.607 12.499-12.499s-5.607-12.499-12.499-12.499H74.07c-17.92 0-32.498-14.579-32.498-32.499V55.427h20v20.999c0 6.892 5.606 12.499 12.498 12.499h275.986c17.92 0 32.499 14.579 32.499 32.499s-14.579 32.499-32.499 32.499H78.57c-6.892 0-12.499 5.607-12.499 12.499v24.151z" fill="#66645d"/></svg>   
